<?xml version="1.0" standalone="no"?>
<!DOCTYPE svg PUBLIC "-//W3C//DTD SVG 20010904//EN"
 "http://www.w3.org/TR/2001/REC-SVG-20010904/DTD/svg10.dtd">
<svg version="1.0" xmlns="http://www.w3.org/2000/svg"
 width="980.000000pt" height="981.000000pt" viewBox="0 0 980.000000 981.000000"
 preserveAspectRatio="xMidYMid meet">

<g transform="translate(0.000000,981.000000) scale(0.100000,-0.100000)"
fill="#000000" stroke="none">
<path d="M3025 9789 c-636 -55 -1272 -311 -1783 -718 -139 -111 -405 -377
-516 -516 -384 -484 -623 -1052 -701 -1669 -58 -459 -9 -974 136 -1423 524
-1619 2165 -2572 3837 -2227 414 85 833 263 1182 502 110 75 266 197 328 256
l42 41 351 -351 351 -351 -28 -69 c-39 -96 -46 -251 -15 -351 43 -143 6 -104
1410 -1505 1252 -1251 1319 -1316 1385 -1347 224 -106 460 -67 631 104 188
188 216 466 69 690 -18 28 -622 638 -1341 1356 -1250 1248 -1311 1308 -1380
1342 -96 47 -166 61 -283 55 -73 -4 -111 -11 -164 -33 l-68 -27 -422 420
c-365 364 -426 421 -458 427 -67 12 -93 -2 -220 -116 -490 -446 -1020 -693
-1679 -785 -175 -25 -566 -25 -744 0 -589 80 -1095 299 -1542 665 -133 109
-354 334 -452 461 -351 452 -562 965 -626 1525 -20 170 -20 511 0 679 121
1036 749 1918 1685 2370 423 203 831 296 1305 296 229 0 402 -17 618 -61 882
-179 1654 -769 2066 -1579 112 -221 181 -404 240 -637 146 -576 111 -1217 -95
-1772 -53 -140 -136 -320 -196 -425 -45 -79 -53 -98 -52 -143 0 -43 5 -59 30
-90 42 -52 97 -71 155 -54 25 8 58 28 76 47 41 44 208 382 266 539 160 433
226 862 205 1341 -22 491 -170 1011 -412 1442 -595 1060 -1709 1710 -2916
1701 -96 -1 -220 -6 -275 -10z m3786 -6495 c53 -15 83 -45 1342 -1302 1054
-1054 1292 -1297 1314 -1339 53 -109 13 -243 -91 -307 -70 -44 -156 -48 -229
-13 -42 22 -285 260 -1339 1314 -1257 1259 -1287 1289 -1302 1342 -20 68 -20
84 0 150 20 69 84 134 151 155 63 19 88 19 154 0z"/>
<path d="M3105 9004 c-340 -36 -616 -113 -900 -254 -509 -251 -905 -647 -1155
-1155 -120 -243 -194 -478 -237 -755 -25 -163 -25 -547 1 -715 121 -798 588
-1469 1294 -1860 251 -138 520 -229 837 -282 173 -28 592 -25 774 6 821 141
1506 649 1866 1386 177 363 255 700 255 1107 0 290 -37 528 -125 793 -295 898
-1067 1552 -2015 1706 -121 19 -491 34 -595 23z m620 -338 c862 -164 1556
-828 1754 -1676 58 -252 74 -582 37 -820 -51 -332 -163 -630 -343 -904 -92
-141 -161 -226 -287 -351 -346 -345 -765 -555 -1256 -631 -158 -24 -463 -25
-620 -1 -248 38 -445 100 -667 207 -620 302 -1070 887 -1203 1564 -73 374 -49
764 72 1135 46 138 159 375 238 496 222 338 510 597 865 777 249 126 448 185
780 232 17 2 134 3 260 1 199 -2 249 -6 370 -29z"/>
<path d="M3146 8209 c-526 -58 -984 -335 -1274 -770 -114 -171 -210 -400 -251
-605 -26 -125 -44 -324 -36 -376 18 -104 142 -162 225 -105 64 43 73 65 82
199 18 280 98 518 249 738 252 368 651 592 1107 619 100 6 127 11 150 28 96
71 95 186 -1 257 -33 24 -123 30 -251 15z"/>
</g>
</svg>
